<mxfile host="65bd71144e" modified="2020-12-13T13:19:38.322Z" agent="5.0 (Windows NT 10.0; Win64; x64) AppleWebKit/537.36 (KHTML, like Gecko) Code/1.52.0 Chrome/83.0.4103.122 Electron/9.3.5 Safari/537.36" etag="7DDTJuZawFWXPvUyh2sH" version="13.10.0" type="embed" pages="2">
    <diagram id="y2hhFEVzYKLnzNDmgH2u" name="Page-1">
        <mxGraphModel dx="1618" dy="614" grid="1" gridSize="10" guides="1" tooltips="1" connect="1" arrows="1" fold="1" page="1" pageScale="1" pageWidth="850" pageHeight="1100" math="0" shadow="0">
            <root>
                <mxCell id="0"/>
                <mxCell id="1" parent="0"/>
                <mxCell id="4" style="edgeStyle=orthogonalEdgeStyle;rounded=0;orthogonalLoop=1;jettySize=auto;html=1;exitX=0.5;exitY=1;exitDx=0;exitDy=0;" parent="1" source="2" target="5" edge="1">
                    <mxGeometry relative="1" as="geometry">
                        <mxPoint x="-350" y="170" as="targetPoint"/>
                        <Array as="points">
                            <mxPoint y="120"/>
                            <mxPoint x="-510" y="120"/>
                        </Array>
                    </mxGeometry>
                </mxCell>
                <mxCell id="19" style="edgeStyle=orthogonalEdgeStyle;rounded=0;orthogonalLoop=1;jettySize=auto;html=1;exitX=0.5;exitY=1;exitDx=0;exitDy=0;" parent="1" source="2" target="8" edge="1">
                    <mxGeometry relative="1" as="geometry"/>
                </mxCell>
                <mxCell id="20" style="edgeStyle=orthogonalEdgeStyle;rounded=0;orthogonalLoop=1;jettySize=auto;html=1;exitX=0.5;exitY=1;exitDx=0;exitDy=0;" parent="1" source="2" target="7" edge="1">
                    <mxGeometry relative="1" as="geometry"/>
                </mxCell>
                <mxCell id="21" style="edgeStyle=orthogonalEdgeStyle;rounded=0;orthogonalLoop=1;jettySize=auto;html=1;exitX=0.5;exitY=1;exitDx=0;exitDy=0;" parent="1" source="2" target="11" edge="1">
                    <mxGeometry relative="1" as="geometry"/>
                </mxCell>
                <mxCell id="22" style="edgeStyle=orthogonalEdgeStyle;rounded=0;orthogonalLoop=1;jettySize=auto;html=1;exitX=0.5;exitY=1;exitDx=0;exitDy=0;entryX=0.5;entryY=0;entryDx=0;entryDy=0;" parent="1" source="2" target="9" edge="1">
                    <mxGeometry relative="1" as="geometry"/>
                </mxCell>
                <mxCell id="23" style="edgeStyle=orthogonalEdgeStyle;rounded=0;orthogonalLoop=1;jettySize=auto;html=1;exitX=0.5;exitY=1;exitDx=0;exitDy=0;entryX=0.5;entryY=0;entryDx=0;entryDy=0;" parent="1" source="2" target="10" edge="1">
                    <mxGeometry relative="1" as="geometry"/>
                </mxCell>
                <mxCell id="2" value="JOB MANIA" style="rounded=0;whiteSpace=wrap;html=1;" parent="1" vertex="1">
                    <mxGeometry x="-60" y="10" width="120" height="60" as="geometry"/>
                </mxCell>
                <mxCell id="5" value="HOME PAGE" style="rounded=0;whiteSpace=wrap;html=1;" parent="1" vertex="1">
                    <mxGeometry x="-570" y="170" width="120" height="60" as="geometry"/>
                </mxCell>
                <mxCell id="7" value="INTERNSHIPS" style="rounded=0;whiteSpace=wrap;html=1;" parent="1" vertex="1">
                    <mxGeometry x="-230" y="170" width="120" height="60" as="geometry"/>
                </mxCell>
                <mxCell id="8" value="MENTORSHIP/GUIDENCE" style="rounded=0;whiteSpace=wrap;html=1;" parent="1" vertex="1">
                    <mxGeometry x="-80" y="170" width="160" height="60" as="geometry"/>
                </mxCell>
                <mxCell id="9" value="CONTACT US" style="rounded=0;whiteSpace=wrap;html=1;" parent="1" vertex="1">
                    <mxGeometry x="290" y="170" width="120" height="60" as="geometry"/>
                </mxCell>
                <mxCell id="10" value="JOBS" style="rounded=0;whiteSpace=wrap;html=1;" parent="1" vertex="1">
                    <mxGeometry x="-410" y="170" width="120" height="60" as="geometry"/>
                </mxCell>
                <mxCell id="11" value="DONATE" style="rounded=0;whiteSpace=wrap;html=1;" parent="1" vertex="1">
                    <mxGeometry x="120" y="170" width="120" height="60" as="geometry"/>
                </mxCell>
            </root>
        </mxGraphModel>
    </diagram>
    <diagram id="iI2JaZMaOYLOpyQFGiqr" name="Page-2">
        <mxGraphModel dx="1618" dy="614" grid="1" gridSize="10" guides="1" tooltips="1" connect="1" arrows="1" fold="1" page="1" pageScale="1" pageWidth="850" pageHeight="1100" math="0" shadow="0">
            <root>
                <mxCell id="zbaKaciDD3NjAA09qa9B-0"/>
                <mxCell id="zbaKaciDD3NjAA09qa9B-1" parent="zbaKaciDD3NjAA09qa9B-0"/>
                <mxCell id="zbaKaciDD3NjAA09qa9B-2" value="COVER SECTION (refer from udemy)" style="whiteSpace=wrap;html=1;sketch=1;" parent="zbaKaciDD3NjAA09qa9B-1" vertex="1">
                    <mxGeometry x="90" y="90" width="430" height="90" as="geometry"/>
                </mxCell>
                <mxCell id="zbaKaciDD3NjAA09qa9B-3" value="&lt;br&gt;&lt;br&gt;Hero Spot/Company tagline/identity&lt;br&gt;(refer from coursera)" style="whiteSpace=wrap;html=1;sketch=1;" parent="zbaKaciDD3NjAA09qa9B-1" vertex="1">
                    <mxGeometry x="90" y="190" width="430" height="80" as="geometry"/>
                </mxCell>
                <mxCell id="zbaKaciDD3NjAA09qa9B-4" value="INTERACTIVE MAP FOR SHOWING&amp;nbsp;&lt;br&gt;BRANCHES OF THE ORGANISATION" style="whiteSpace=wrap;html=1;sketch=1;" parent="zbaKaciDD3NjAA09qa9B-1" vertex="1">
                    <mxGeometry x="90" y="470" width="300" height="60" as="geometry"/>
                </mxCell>
                <mxCell id="CEV1c035KvtXxoUnK7Pm-3" style="edgeStyle=orthogonalEdgeStyle;rounded=0;orthogonalLoop=1;jettySize=auto;html=1;exitX=0;exitY=0.25;exitDx=0;exitDy=0;entryX=0.797;entryY=0.083;entryDx=0;entryDy=0;entryPerimeter=0;" parent="zbaKaciDD3NjAA09qa9B-1" source="zbaKaciDD3NjAA09qa9B-5" target="CEV1c035KvtXxoUnK7Pm-2" edge="1">
                    <mxGeometry relative="1" as="geometry"/>
                </mxCell>
                <mxCell id="zbaKaciDD3NjAA09qa9B-5" value="SOME DATA GOES HERE" style="whiteSpace=wrap;html=1;sketch=1;" parent="zbaKaciDD3NjAA09qa9B-1" vertex="1">
                    <mxGeometry x="90" y="275" width="300" height="180" as="geometry"/>
                </mxCell>
                <mxCell id="CP8PoobCeixfioR8hf92-3" style="edgeStyle=entityRelationEdgeStyle;rounded=0;sketch=1;orthogonalLoop=1;jettySize=auto;html=1;exitX=0.5;exitY=1;exitDx=0;exitDy=0;" parent="zbaKaciDD3NjAA09qa9B-1" source="zbaKaciDD3NjAA09qa9B-6" target="CP8PoobCeixfioR8hf92-4" edge="1">
                    <mxGeometry relative="1" as="geometry">
                        <mxPoint x="500" y="399.9999999999999" as="targetPoint"/>
                    </mxGeometry>
                </mxCell>
                <mxCell id="zbaKaciDD3NjAA09qa9B-6" value="TRENDING&amp;nbsp;&lt;br&gt;NEWS&lt;br&gt;(HIGHLIGHTING 3 TRENDING NEWS)" style="whiteSpace=wrap;html=1;sketch=1;" parent="zbaKaciDD3NjAA09qa9B-1" vertex="1">
                    <mxGeometry x="400" y="275" width="120" height="185" as="geometry"/>
                </mxCell>
                <mxCell id="CP8PoobCeixfioR8hf92-2" value="NAVBAR" style="rounded=0;whiteSpace=wrap;html=1;sketch=1;" parent="zbaKaciDD3NjAA09qa9B-1" vertex="1">
                    <mxGeometry x="90" y="50" width="430" height="30" as="geometry"/>
                </mxCell>
                <mxCell id="CP8PoobCeixfioR8hf92-4" value="THIS WILL BE FIXED ON SCROLL" style="ellipse;whiteSpace=wrap;html=1;sketch=1;" parent="zbaKaciDD3NjAA09qa9B-1" vertex="1">
                    <mxGeometry x="640" y="360" width="140" height="80" as="geometry"/>
                </mxCell>
                <mxCell id="CP8PoobCeixfioR8hf92-5" value="FOOTER COMMON FOR ALL PAGES&lt;br&gt;(SHOWING SOCIAL MEDIA LINKS)" style="rounded=0;whiteSpace=wrap;html=1;sketch=1;glass=0;" parent="zbaKaciDD3NjAA09qa9B-1" vertex="1">
                    <mxGeometry x="90" y="540" width="420" height="60" as="geometry"/>
                </mxCell>
                <mxCell id="2RY2UyoMK7rBlxGRWQdk-3" style="edgeStyle=orthogonalEdgeStyle;curved=0;rounded=1;sketch=0;orthogonalLoop=1;jettySize=auto;html=1;exitX=0;exitY=0.5;exitDx=0;exitDy=0;entryX=1.007;entryY=0.647;entryDx=0;entryDy=0;entryPerimeter=0;" parent="zbaKaciDD3NjAA09qa9B-1" source="CEV1c035KvtXxoUnK7Pm-0" target="zbaKaciDD3NjAA09qa9B-3" edge="1">
                    <mxGeometry relative="1" as="geometry"/>
                </mxCell>
                <mxCell id="CEV1c035KvtXxoUnK7Pm-0" value="Animations" style="ellipse;whiteSpace=wrap;html=1;sketch=1;" parent="zbaKaciDD3NjAA09qa9B-1" vertex="1">
                    <mxGeometry x="640" y="195" width="120" height="80" as="geometry"/>
                </mxCell>
                <mxCell id="CEV1c035KvtXxoUnK7Pm-2" value="TOOL TIP" style="ellipse;whiteSpace=wrap;html=1;" parent="zbaKaciDD3NjAA09qa9B-1" vertex="1">
                    <mxGeometry x="-60" y="240" width="120" height="80" as="geometry"/>
                </mxCell>
                <mxCell id="IIVeeZZzdyTqHLE4DQA1-2" value="DATA SHOULD BE IN ZIG-ZAG MANNER" style="rounded=1;whiteSpace=wrap;html=1;" parent="zbaKaciDD3NjAA09qa9B-1" vertex="1">
                    <mxGeometry x="100" y="285" width="270" height="60" as="geometry"/>
                </mxCell>
                <mxCell id="2RY2UyoMK7rBlxGRWQdk-1" style="edgeStyle=orthogonalEdgeStyle;curved=0;rounded=1;sketch=0;orthogonalLoop=1;jettySize=auto;html=1;exitX=0;exitY=1;exitDx=0;exitDy=0;entryX=1;entryY=0.5;entryDx=0;entryDy=0;" parent="zbaKaciDD3NjAA09qa9B-1" source="2RY2UyoMK7rBlxGRWQdk-0" target="CP8PoobCeixfioR8hf92-2" edge="1">
                    <mxGeometry relative="1" as="geometry"/>
                </mxCell>
                <mxCell id="2RY2UyoMK7rBlxGRWQdk-2" style="edgeStyle=orthogonalEdgeStyle;curved=0;rounded=1;sketch=0;orthogonalLoop=1;jettySize=auto;html=1;exitX=0;exitY=1;exitDx=0;exitDy=0;" parent="zbaKaciDD3NjAA09qa9B-1" source="2RY2UyoMK7rBlxGRWQdk-0" edge="1">
                    <mxGeometry relative="1" as="geometry">
                        <mxPoint x="619" y="118" as="targetPoint"/>
                    </mxGeometry>
                </mxCell>
                <mxCell id="2RY2UyoMK7rBlxGRWQdk-0" value="FIXED AT THE TOP" style="ellipse;whiteSpace=wrap;html=1;rounded=0;sketch=1;" parent="zbaKaciDD3NjAA09qa9B-1" vertex="1">
                    <mxGeometry x="590" y="50" width="200" height="80" as="geometry"/>
                </mxCell>
            </root>
        </mxGraphModel>
    </diagram>
</mxfile>